<?xml version="1.0" standalone="no"?>
<!DOCTYPE svg PUBLIC "-//W3C//DTD SVG 20010904//EN"
 "http://www.w3.org/TR/2001/REC-SVG-20010904/DTD/svg10.dtd">
<svg version="1.0" xmlns="http://www.w3.org/2000/svg"
 width="1024.000000pt" height="1024.000000pt" viewBox="0 0 1024.000000 1024.000000"
 preserveAspectRatio="xMidYMid meet">
<metadata>
Created by potrace 1.11, written by Peter Selinger 2001-2013
</metadata>
<g transform="translate(0.000000,1024.000000) scale(0.100000,-0.100000)"
fill="#000000" stroke="none">
<path d="M4805 9730 c-214 -38 -378 -91 -560 -180 -169 -83 -279 -158 -283
-191 -4 -31 11 -39 140 -68 111 -26 252 -79 393 -146 136 -66 243 -132 381
-236 59 -43 115 -79 125 -79 10 0 71 45 136 101 217 185 440 319 683 409 171
62 180 67 180 90 0 23 -37 48 -166 113 -332 166 -737 240 -1029 187z"/>
<path d="M3933 9496 c1 -6 -8 -12 -20 -14 -12 -2 -27 -10 -33 -18 -7 -8 -18
-14 -25 -14 -7 0 -18 -7 -25 -15 -7 -9 -19 -14 -27 -11 -19 8 -75 -35 -68 -52
3 -8 0 -10 -6 -6 -6 3 -57 6 -113 5 -351 -6 -647 -71 -908 -201 -131 -65 -392
-239 -513 -343 -232 -197 -444 -509 -550 -807 -14 -41 -33 -85 -41 -98 -8 -12
-54 -48 -102 -78 -307 -198 -541 -452 -692 -752 -27 -55 -50 -104 -50 -108 0
-4 -24 -64 -54 -133 -57 -132 -102 -268 -93 -278 3 -3 9 11 12 31 4 20 12 33
17 30 5 -3 7 -16 4 -29 -13 -53 -17 -95 -7 -95 5 0 12 8 14 18 4 16 5 16 6 0
2 -38 19 -15 36 50 10 37 22 72 27 77 7 7 8 3 5 -10 -3 -11 -9 -40 -12 -65 -4
-25 -9 -54 -11 -65 -24 -127 -25 -487 -1 -623 16 -93 28 -122 52 -122 7 0 53
48 103 108 142 170 314 323 475 421 70 43 82 46 45 11 l-23 -21 28 10 c40 15
33 3 -8 -15 -20 -8 -33 -19 -30 -24 9 -15 27 -12 20 3 -4 6 0 4 9 -7 8 -10 21
-16 28 -14 7 3 19 -4 26 -16 7 -12 11 -14 9 -5 -3 9 1 16 9 16 7 0 11 -4 9 -8
-3 -4 6 -2 20 4 14 7 25 18 25 25 0 6 5 12 11 12 5 0 7 -4 4 -10 -4 -7 3 -7
20 0 50 19 20 -8 -90 -81 -248 -164 -431 -339 -584 -559 -48 -69 -52 -79 -48
-119 6 -56 118 -285 199 -405 89 -134 196 -262 303 -365 116 -111 195 -171
223 -171 12 0 37 18 59 43 258 289 503 482 808 637 155 79 171 91 159 112 -5
9 -56 53 -114 99 -134 107 -286 259 -389 388 -85 107 -171 233 -171 250 0 6
-4 11 -10 11 -5 0 -12 11 -16 25 -3 14 -10 25 -14 25 -4 0 -10 9 -13 20 -7 28
8 25 21 -5 6 -14 16 -25 22 -25 6 0 8 6 4 13 -5 8 -2 7 10 -2 13 -11 14 -16 4
-22 -7 -5 -8 -9 -2 -9 6 0 17 -11 24 -25 8 -14 20 -23 27 -21 7 3 13 0 13 -6
0 -6 6 -5 17 3 9 8 14 9 10 3 -4 -7 0 -15 9 -18 22 -8 26 -8 19 4 -3 6 -2 10
4 10 5 0 14 -6 18 -12 4 -7 19 -22 33 -33 l25 -20 -19 23 c-12 13 -14 22 -7
22 7 0 9 5 6 10 -4 6 -10 8 -14 5 -5 -2 -19 7 -32 22 l-24 26 30 -19 c31 -20
30 -16 -7 38 -10 14 -18 29 -18 33 0 4 37 -42 81 -102 107 -141 155 -198 264
-308 143 -144 354 -312 423 -336 25 -8 49 -6 124 15 238 64 502 98 738 95 85
-1 180 -6 210 -11 94 -15 150 -8 150 18 0 16 16 19 25 4 4 -6 10 -8 15 -5 4 3
10 -2 14 -10 8 -22 -13 -29 -74 -28 -56 2 -91 -9 -76 -24 5 -4 11 -2 13 5 6
17 43 15 43 -2 0 -13 71 -38 115 -40 11 -1 19 -7 18 -13 -2 -7 0 -12 5 -11 4
1 18 -2 32 -5 14 -4 39 -9 55 -11 17 -2 44 -9 60 -16 34 -14 52 -18 78 -19 12
-1 16 -5 11 -13 -6 -10 -4 -10 8 0 11 9 18 10 23 2 3 -6 11 -8 16 -5 5 4 9 2
9 -2 0 -5 9 -9 21 -10 12 -1 27 -10 33 -19 7 -9 18 -14 24 -10 12 7 83 -8 114
-25 10 -5 25 -9 33 -9 9 0 26 -6 38 -14 12 -8 41 -17 63 -19 23 -3 51 -10 63
-16 11 -7 21 -9 21 -5 0 3 6 1 13 -5 8 -6 16 -8 20 -5 3 3 16 -1 29 -9 12 -8
39 -18 58 -22 19 -4 56 -14 82 -22 109 -35 128 60 38 193 -26 39 -29 49 -18
62 10 11 13 77 15 261 l1 246 -33 130 c-70 274 -208 584 -369 830 -111 171
-150 207 -184 173 -10 -10 -12 -4 -10 30 2 23 8 42 14 42 15 0 66 -55 57 -63
-3 -4 -1 -7 6 -7 7 0 27 -16 44 -36 64 -73 77 -87 77 -77 0 6 -7 16 -15 23 -9
7 -14 19 -11 27 3 7 1 24 -4 38 -6 15 -6 27 0 30 5 3 7 12 4 20 -4 8 -10 13
-14 10 -5 -3 -7 6 -4 20 3 17 0 25 -10 25 -10 0 -13 6 -10 15 4 8 -1 17 -9 21
-9 3 -13 12 -10 21 4 9 -2 22 -13 32 -11 9 -33 34 -50 56 -28 38 -29 44 -28
140 1 55 5 109 10 119 6 15 4 17 -7 11 -12 -8 -12 -6 0 8 10 13 10 17 1 17 -9
0 -9 4 1 17 10 11 10 14 2 9 -8 -4 -13 -1 -13 9 0 9 5 13 10 10 6 -3 10 3 10
15 0 12 -4 19 -9 15 -6 -3 -15 3 -20 14 -14 25 -14 34 -1 26 6 -3 7 1 4 9 -3
9 -10 14 -14 11 -5 -3 -11 1 -13 7 -4 8 -6 7 -6 -4 -1 -9 -7 -23 -13 -30 -7
-7 -13 -17 -13 -23 -1 -10 -21 -85 -31 -114 -2 -8 -6 -12 -9 -9 -9 8 46 224
90 357 80 236 213 486 387 723 53 73 49 83 -64 170 -233 182 -512 317 -790
385 -65 15 -118 32 -118 36 0 5 8 6 18 3 45 -14 154 -17 169 -4 14 11 15 10 8
-11 -7 -22 -7 -23 12 -4 28 27 23 46 -17 60 -43 15 -50 16 -50 3 0 -5 3 -9 8
-9 22 4 32 -3 32 -21 0 -19 -1 -19 -25 2 -14 12 -23 28 -21 35 3 7 1 13 -4 13
-6 0 -9 5 -7 12 1 6 -7 13 -18 15 -78 15 -96 47 -45 85 17 12 37 34 44 49 12
24 12 28 -2 34 -13 5 -13 7 3 19 17 12 16 13 -8 18 -16 3 -25 1 -24 -6z m17
-56 c-6 -11 -13 -20 -16 -20 -2 0 0 9 6 20 6 11 13 20 16 20 2 0 0 -9 -6 -20z
m-160 -35 c-7 -8 -17 -15 -22 -15 -6 0 -5 7 2 15 7 8 17 15 22 15 6 0 5 -7 -2
-15z m-240 -195 c0 -23 -26 -34 -34 -14 -9 25 -7 30 14 31 13 1 20 -4 20 -17z
m300 -6 c0 -2 -11 -4 -25 -4 -14 0 -25 4 -25 9 0 4 11 6 25 3 14 -2 25 -6 25
-8z m-80 2 c0 -2 -7 -7 -16 -10 -8 -3 -12 -2 -9 4 6 10 25 14 25 6z m668
-1561 c-3 -3 -9 2 -12 12 -6 14 -5 15 5 6 7 -7 10 -15 7 -18z m-85 -145 c-8
-30 -22 -34 -45 -14 l-20 19 24 6 c40 12 46 10 41 -11z m-3671 -777 c-6 -2
-10 -9 -6 -14 3 -5 0 -9 -5 -9 -12 0 -14 13 -4 23 3 4 11 7 17 6 6 0 5 -3 -2
-6z m54 -29 c1 -9 0 -13 -4 -10 -3 4 -7 14 -8 22 -1 9 0 13 4 10 3 -4 7 -14 8
-22z m-66 -21 c0 -17 -19 -37 -27 -29 -4 5 -2 11 5 13 6 3 10 9 6 14 -3 5 0 9
5 9 6 0 11 -3 11 -7z m830 -287 c0 -2 -7 -6 -15 -10 -8 -3 -15 -1 -15 4 0 6 7
10 15 10 8 0 15 -2 15 -4z m-70 -36 c0 -5 -5 -10 -11 -10 -5 0 -7 5 -4 10 3 6
8 10 11 10 2 0 4 -4 4 -10z m320 -20 c0 -5 -7 -10 -15 -10 -8 0 -15 5 -15 10
0 6 7 10 15 10 8 0 15 -4 15 -10z m-100 -30 c-8 -6 -22 -10 -30 -9 -9 0 -5 6
10 14 27 14 44 10 20 -5z m180 -94 c0 -5 -7 -1 -15 10 -8 10 -14 24 -14 29 0
6 6 1 14 -9 8 -11 15 -24 15 -30z m170 -6 c6 -11 8 -20 6 -20 -3 0 -10 9 -16
20 -6 11 -8 20 -6 20 3 0 10 -9 16 -20z"/>
<path d="M6500 9321 c-14 -4 -26 -14 -28 -23 -2 -9 32 -56 75 -105 209 -236
329 -436 442 -727 31 -82 64 -154 73 -160 12 -7 56 -4 150 10 102 14 186 19
358 19 242 -1 346 -13 533 -61 53 -14 104 -23 112 -20 24 9 17 49 -21 121
-124 233 -318 461 -540 635 -202 158 -534 277 -868 309 -120 12 -247 13 -286
2z"/>
<path d="M6070 9254 c-278 -82 -549 -228 -777 -417 -94 -78 -143 -130 -143
-152 0 -7 39 -59 86 -116 218 -261 369 -532 475 -849 43 -131 53 -150 75 -150
8 0 58 41 111 91 115 106 281 235 408 314 108 68 341 183 445 220 101 35 120
49 120 85 0 58 -116 329 -207 485 -95 161 -261 368 -371 461 -75 64 -92 66
-222 28z"/>
<path d="M4957 8488 c-126 -156 -292 -465 -367 -682 -53 -157 -110 -383 -110
-441 0 -26 27 -75 63 -115 55 -60 184 -237 239 -326 78 -126 185 -344 242
-491 26 -68 52 -126 58 -129 19 -12 37 22 73 140 85 280 200 523 365 766 128
190 127 179 47 422 -88 267 -211 503 -373 718 -104 137 -146 180 -177 180 -18
0 -36 -12 -60 -42z"/>
<path d="M7355 8164 c-125 -17 -218 -38 -237 -54 -21 -17 -21 -20 -10 -96 52
-347 34 -689 -53 -1031 -19 -75 -35 -139 -35 -144 0 -4 9 -13 19 -19 14 -7 47
-5 118 9 191 37 286 46 508 46 229 -1 348 -13 538 -57 113 -26 129 -20 151 54
71 246 92 565 55 836 -18 138 -60 293 -84 318 -27 27 -173 75 -337 110 -110
23 -149 27 -363 29 -132 2 -253 1 -270 -1z"/>
<path d="M6767 8015 c-301 -118 -603 -321 -841 -565 l-109 -111 6 -77 c3 -42
11 -140 17 -217 19 -228 0 -496 -55 -763 -24 -121 -24 -152 0 -152 7 0 61 40
120 89 250 209 515 368 803 481 49 19 91 43 103 58 34 44 105 303 134 492 25
164 31 458 11 623 -9 76 -20 147 -26 157 -16 29 -61 25 -163 -15z"/>
<path d="M8544 7905 c-7 -18 -3 -58 22 -210 36 -220 20 -532 -43 -818 -31
-139 -31 -138 75 -182 273 -113 528 -288 744 -507 58 -59 113 -108 122 -108
28 0 39 76 39 270 0 199 -10 295 -49 460 -56 238 -107 360 -217 512 -139 193
-274 334 -444 460 -162 121 -236 157 -249 123z"/>
<path d="M4451 7734 c0 -11 3 -14 6 -6 3 7 2 16 -1 19 -3 4 -6 -2 -5 -13z"/>
<path d="M5623 7078 c-35 -37 -142 -224 -205 -356 -103 -215 -199 -529 -229
-745 -9 -67 -9 -113 -1 -200 7 -61 14 -155 18 -207 7 -120 11 -140 29 -140 8
0 27 17 40 38 214 319 236 356 275 469 107 308 158 664 143 991 -6 134 -14
172 -36 172 -7 0 -23 -10 -34 -22z"/>
<path d="M4624 7011 c0 -33 4 -41 19 -41 10 0 15 4 12 10 -3 5 -8 20 -10 32
-8 41 -22 40 -21 -1z"/>
<path d="M7336 6694 c-132 -17 -361 -68 -390 -88 -12 -7 -52 -75 -91 -151
-126 -251 -291 -482 -510 -714 -95 -100 -105 -115 -92 -128 13 -13 28 -13 128
2 311 44 633 39 914 -16 156 -30 161 -29 252 43 106 83 272 251 369 374 112
140 187 257 266 412 75 148 84 191 45 209 -34 16 -216 51 -322 63 -126 14
-439 10 -569 -6z"/>
<path d="M601 6544 c0 -11 3 -14 6 -6 3 7 2 16 -1 19 -3 4 -6 -2 -5 -13z"/>
<path d="M8423 6548 c-6 -7 -31 -59 -56 -115 -121 -273 -363 -603 -585 -799
-48 -42 -91 -85 -96 -95 -13 -27 5 -43 77 -69 93 -33 334 -151 434 -211 132
-80 309 -217 431 -334 85 -81 116 -105 137 -105 21 0 47 19 107 78 234 226
434 537 528 820 38 113 35 124 -45 222 -186 227 -470 442 -752 569 -113 51
-162 62 -180 39z"/>
<path d="M6498 6437 c-297 -153 -541 -335 -765 -571 -81 -85 -112 -127 -149
-199 -26 -51 -75 -142 -110 -203 -65 -114 -77 -154 -48 -154 9 0 89 33 178 74
88 40 178 79 198 85 111 36 405 303 590 534 146 183 307 448 294 483 -11 28
-66 13 -188 -49z"/>
<path d="M571 6404 c0 -11 3 -14 6 -6 3 7 2 16 -1 19 -3 4 -6 -2 -5 -13z"/>
<path d="M1290 6180 c-13 -11 -19 -20 -13 -20 5 0 18 9 28 20 10 11 16 20 13
20 -3 0 -15 -9 -28 -20z"/>
<path d="M9495 5523 c-110 -259 -221 -438 -403 -645 -44 -51 -106 -115 -136
-141 -31 -26 -59 -59 -62 -72 -5 -19 12 -52 75 -151 173 -271 289 -572 336
-871 14 -90 47 -80 133 39 143 200 235 382 302 604 61 199 75 317 61 522 -19
273 -75 493 -186 727 -30 62 -40 75 -59 75 -20 0 -29 -13 -61 -87z"/>
<path d="M6430 5484 c-254 -30 -503 -94 -587 -150 -29 -19 -109 -64 -178 -100
-194 -102 -204 -117 -84 -134 35 -5 141 -22 234 -36 162 -26 176 -27 295 -15
322 32 670 134 961 282 64 32 124 68 134 79 17 19 17 22 3 36 -27 27 -180 45
-428 49 -161 2 -271 -1 -350 -11z"/>
<path d="M3510 5384 c-19 -2 -78 -9 -130 -15 -109 -12 -272 -44 -313 -60 -46
-19 -29 -41 70 -90 258 -129 655 -222 1008 -236 137 -5 144 -4 315 35 96 22
201 45 232 51 31 7 62 18 68 26 15 18 -3 29 -150 95 -63 29 -149 69 -190 91
-132 67 -327 98 -650 104 -124 2 -241 1 -260 -1z"/>
<path d="M7355 5315 c-264 -157 -555 -273 -839 -336 -98 -21 -146 -37 -146
-49 0 -15 38 -39 130 -80 277 -127 529 -297 752 -508 48 -45 100 -87 115 -93
50 -19 309 22 518 82 201 58 412 150 590 259 144 87 147 103 38 208 -257 246
-591 451 -920 561 -96 32 -114 29 -238 -44z"/>
<path d="M665 5266 c-27 -40 -94 -254 -123 -386 -25 -118 -27 -140 -27 -395
l0 -270 47 -139 c59 -169 113 -292 183 -411 100 -171 267 -375 306 -375 22 0
25 8 44 160 36 283 134 576 275 821 28 48 50 98 50 111 0 19 -18 40 -72 85
-233 193 -442 449 -564 693 -69 137 -88 154 -119 106z"/>
<path d="M2640 5167 c-213 -96 -395 -207 -570 -348 -115 -93 -338 -321 -346
-355 -10 -38 18 -60 171 -135 208 -101 436 -174 666 -213 119 -21 345 -39 384
-32 26 5 67 41 181 157 221 224 413 372 665 513 141 79 148 95 44 113 -402 72
-614 135 -875 264 -99 48 -174 79 -193 79 -18 0 -75 -19 -127 -43z"/>
<path d="M5503 4924 c-26 -12 -11 -34 75 -105 48 -41 125 -109 172 -153 71
-65 107 -89 220 -146 318 -159 679 -260 991 -277 170 -9 169 9 -3 148 -255
205 -584 384 -887 480 -82 26 -119 32 -261 39 -91 5 -194 11 -230 14 -36 3
-71 3 -77 0z"/>
<path d="M4670 4889 c-25 -5 -113 -17 -195 -28 -123 -15 -167 -25 -245 -56
-224 -88 -508 -253 -690 -400 -127 -102 -253 -219 -273 -254 -18 -31 -18 -31
6 -42 18 -8 52 -6 143 11 289 51 520 128 776 256 210 105 259 142 441 327 92
94 166 175 164 181 -5 14 -70 17 -127 5z"/>
<path d="M5357 4743 c-12 -11 -8 -38 18 -119 14 -43 41 -135 59 -204 36 -137
51 -169 135 -305 144 -233 370 -491 584 -667 118 -96 161 -123 183 -114 19 7
12 48 -31 181 -102 313 -277 629 -494 888 -47 57 -97 101 -185 163 -67 47
-149 107 -184 134 -64 51 -73 55 -85 43z"/>
<path d="M4907 4722 c-14 -9 -63 -51 -109 -93 -46 -41 -115 -100 -153 -131
-192 -151 -447 -632 -555 -1043 -41 -158 -46 -193 -25 -201 29 -11 67 18 216
166 222 221 386 446 521 715 54 106 67 144 84 248 8 49 26 136 39 194 36 152
33 178 -18 145z"/>
<path d="M5135 4670 c-3 -5 -26 -78 -50 -162 -24 -84 -54 -180 -67 -213 -22
-57 -23 -73 -23 -310 1 -344 32 -542 130 -845 61 -186 89 -220 121 -145 22 54
81 307 99 425 22 147 30 476 16 630 -16 164 -23 195 -76 320 -24 58 -54 139
-68 180 -13 41 -30 87 -37 103 -13 27 -34 35 -45 17z"/>
<path d="M8610 4468 c-115 -73 -358 -193 -494 -243 -117 -43 -323 -97 -461
-120 -100 -17 -125 -27 -125 -49 0 -7 33 -58 73 -114 191 -268 342 -605 408
-912 28 -134 37 -144 108 -136 78 9 275 61 384 100 274 99 643 331 660 414 13
63 -31 315 -84 478 -89 277 -293 645 -358 644 -9 -1 -59 -28 -111 -62z"/>
<path d="M6110 4267 c0 -7 39 -78 87 -157 147 -247 240 -458 309 -709 68 -244
63 -233 119 -263 285 -155 674 -259 1030 -274 174 -8 195 -2 195 49 0 91 -96
395 -185 582 -98 210 -301 514 -369 556 -24 15 -50 19 -116 19 -277 0 -615 62
-904 164 -134 48 -166 54 -166 33z"/>
<path d="M1550 4226 c-44 -65 -142 -266 -184 -379 -76 -203 -126 -459 -126
-641 0 -102 10 -117 124 -190 277 -177 576 -286 901 -326 48 -6 95 -8 105 -5
23 7 37 44 45 120 33 297 174 690 351 976 34 55 54 98 52 112 -3 25 -7 26
-223 51 -278 33 -575 123 -822 247 -85 44 -163 79 -174 79 -10 0 -31 -19 -49
-44z"/>
<path d="M4070 4161 c-301 -130 -578 -203 -878 -230 -63 -6 -113 -16 -127 -25
-78 -51 -292 -453 -374 -701 -69 -208 -118 -455 -100 -502 8 -21 15 -23 73
-23 156 0 417 51 641 125 134 44 480 213 518 253 24 25 31 48 51 158 59 319
150 582 298 862 53 100 65 142 41 142 -4 0 -69 -27 -143 -59z"/>
<path d="M5524 3869 c-3 -6 -8 -72 -10 -147 -8 -339 -48 -581 -141 -862 -31
-94 -43 -146 -40 -170 12 -91 271 -440 451 -607 138 -129 374 -305 428 -318
16 -4 29 0 41 13 39 43 131 364 162 567 33 215 29 622 -7 701 -7 14 -56 56
-112 94 -257 176 -466 374 -662 631 -75 97 -98 117 -110 98z"/>
<path d="M4808 3838 c-8 -7 -48 -62 -88 -123 -40 -60 -106 -153 -148 -205 -98
-123 -320 -345 -447 -446 -128 -102 -129 -104 -121 -324 6 -191 17 -286 52
-460 51 -247 181 -581 229 -588 56 -7 413 321 556 513 129 173 279 432 279
482 0 13 -20 69 -44 126 -119 281 -190 573 -216 888 -11 130 -22 160 -52 137z"/>
<path d="M9007 3061 c-133 -90 -314 -182 -462 -236 -91 -34 -317 -95 -406
-109 -70 -12 -73 -20 -71 -147 7 -296 -48 -604 -157 -877 -45 -112 -49 -137
-26 -146 39 -14 301 99 460 199 333 209 521 424 666 761 113 263 186 622 129
631 -8 2 -68 -33 -133 -76z"/>
<path d="M6610 2923 c-1 -5 -2 -123 -4 -263 -4 -345 -34 -520 -138 -828 -39
-116 -50 -157 -42 -170 35 -58 392 -166 654 -197 211 -25 483 -15 537 21 42
27 139 243 193 431 50 175 71 318 77 525 8 251 22 233 -189 242 -349 15 -614
71 -924 197 -114 46 -164 59 -164 42z"/>
<path d="M1270 2840 c-8 -14 -5 -45 11 -117 67 -313 260 -695 444 -878 210
-211 571 -412 858 -480 63 -15 87 -11 87 11 0 8 -18 51 -41 96 -132 263 -214
575 -234 890 -4 59 -12 114 -19 123 -8 12 -45 21 -126 31 -313 40 -584 132
-861 289 -52 30 -98 55 -102 55 -3 0 -11 -9 -17 -20z"/>
<path d="M3655 2768 c-199 -101 -424 -180 -638 -223 -88 -17 -313 -45 -369
-45 -60 0 -78 -26 -78 -109 0 -162 47 -416 116 -625 45 -134 172 -391 214
-431 31 -30 32 -30 169 -33 285 -7 594 59 876 185 122 55 155 78 155 106 0 13
-20 67 -45 122 -128 284 -197 590 -222 990 -8 118 -8 120 -33 122 -14 1 -76
-24 -145 -59z"/>
<path d="M5208 2453 c-8 -10 -40 -61 -70 -113 -166 -280 -382 -527 -631 -719
-57 -44 -109 -87 -116 -95 -19 -23 -4 -57 72 -159 152 -202 316 -358 526 -499
120 -80 270 -158 304 -158 13 0 62 23 108 51 259 155 507 400 675 666 68 108
77 129 64 153 -5 10 -54 47 -107 82 -273 179 -538 443 -723 719 -33 49 -66 89
-74 89 -7 0 -20 -8 -28 -17z"/>
<path d="M6275 1409 c-209 -329 -360 -488 -702 -736 -64 -46 -37 -67 133 -103
141 -31 482 -39 642 -16 235 35 360 79 567 201 190 111 403 292 513 433 38 49
53 90 35 94 -5 0 -87 2 -183 3 -283 4 -540 51 -785 145 -171 65 -165 66 -220
-21z"/>
<path d="M4065 1350 c-228 -112 -558 -196 -810 -207 -141 -6 -175 -14 -175
-39 0 -40 218 -237 385 -347 147 -97 408 -220 520 -245 139 -32 378 -46 547
-32 202 15 468 78 511 119 24 23 19 29 -107 106 -54 33 -137 89 -184 125 -122
91 -332 303 -438 445 -109 145 -106 145 -249 75z"/>
</g>
</svg>
